<svg width="24" height="24" viewBox="0 0 24 24" fill="none" xmlns="http://www.w3.org/2000/svg">
<path d="M21.841 3.09098L19.409 0.659016C18.9871 0.237058 18.4148 3.12036e-06 17.818 0L9.75 0C8.50734 0 7.5 1.00734 7.5 2.25V4.5H3.75C2.50734 4.5 1.5 5.50734 1.5 6.75V21.75C1.5 22.9927 2.50734 24 3.75 24H14.25C15.4927 24 16.5 22.9927 16.5 21.75V19.5H20.25C21.4927 19.5 22.5 18.4927 22.5 17.25V4.68197C22.5 4.08523 22.2629 3.51294 21.841 3.09098ZM18 1.52302C18.1319 1.55555 18.2523 1.62356 18.3483 1.71966L20.7803 4.15167C20.8764 4.24767 20.9444 4.36813 20.9769 4.5H18V1.52302ZM15 21.75C15 22.1635 14.6635 22.5 14.25 22.5H3.75C3.33647 22.5 3 22.1635 3 21.75V6.75C3 6.33647 3.33647 6 3.75 6H7.5V17.25C7.5 18.4927 8.50734 19.5 9.75 19.5H15V21.75ZM21 17.25C21 17.6635 20.6635 18 20.25 18H9.75C9.33647 18 9 17.6635 9 17.25V2.25C9 1.83647 9.33647 1.5 9.75 1.5H16.5V4.875C16.5 5.49375 17.0063 6 17.625 6H21V17.25Z" fill="currentColor"/>
</svg>
